ISO-10303-21;
HEADER;
/* Generated by software containing ST-Developer
 * from STEP Tools, Inc. (www.steptools.com) 
 */

FILE_DESCRIPTION(
/* description */ (''),
/* implementation_level */ '2;1');

FILE_NAME(
/* name */ 'MiniMac_FitGauge.step',
/* time_stamp */ '2026-09-07T14:26:16-07:00',
/* author */ (''),
/* organization */ (''),
/* preprocessor_version */ 'ST-DEVELOPER v20.1',
/* originating_system */ 'Autodesk Translation Framework v15.8.0.0',
/* authorisation */ '');

FILE_SCHEMA (('AUTOMOTIVE_DESIGN { 1 0 10303 214 3 1 1 }'));
ENDSEC;

DATA;
#10=MECHANICAL_DESIGN_GEOMETRIC_PRESENTATION_REPRESENTATION('',(#13),#1001);
#11=SHAPE_REPRESENTATION_RELATIONSHIP('SRR','None',#1008,#12);
#12=ADVANCED_BREP_SHAPE_REPRESENTATION('',(#14),#1000);
#13=STYLED_ITEM('',(#1018),#14);
#14=MANIFOLD_SOLID_BREP('FitGauge',#581);
#15=FACE_BOUND('',#110,.T.);
#16=FACE_BOUND('',#112,.T.);
#17=FACE_BOUND('',#113,.T.);
#18=FACE_BOUND('',#114,.T.);
#19=FACE_BOUND('',#115,.T.);
#20=FACE_BOUND('',#116,.T.);
#21=FACE_BOUND('',#117,.T.);
#22=FACE_BOUND('',#118,.T.);
#23=PLANE('',#598);
#24=PLANE('',#602);
#25=PLANE('',#606);
#26=PLANE('',#610);
#27=PLANE('',#614);
#28=PLANE('',#618);
#29=PLANE('',#619);
#30=PLANE('',#623);
#31=PLANE('',#627);
#32=PLANE('',#631);
#33=PLANE('',#635);
#34=PLANE('',#636);
#35=PLANE('',#637);
#36=PLANE('',#638);
#37=PLANE('',#639);
#38=PLANE('',#643);
#39=PLANE('',#647);
#40=PLANE('',#651);
#41=PLANE('',#655);
#42=PLANE('',#656);
#43=FACE_OUTER_BOUND('',#77,.T.);
#44=FACE_OUTER_BOUND('',#78,.T.);
#45=FACE_OUTER_BOUND('',#79,.T.);
#46=FACE_OUTER_BOUND('',#80,.T.);
#47=FACE_OUTER_BOUND('',#81,.T.);
#48=FACE_OUTER_BOUND('',#82,.T.);
#49=FACE_OUTER_BOUND('',#83,.T.);
#50=FACE_OUTER_BOUND('',#84,.T.);
#51=FACE_OUTER_BOUND('',#85,.T.);
#52=FACE_OUTER_BOUND('',#86,.T.);
#53=FACE_OUTER_BOUND('',#87,.T.);
#54=FACE_OUTER_BOUND('',#88,.T.);
#55=FACE_OUTER_BOUND('',#89,.T.);
#56=FACE_OUTER_BOUND('',#90,.T.);
#57=FACE_OUTER_BOUND('',#91,.T.);
#58=FACE_OUTER_BOUND('',#92,.T.);
#59=FACE_OUTER_BOUND('',#93,.T.);
#60=FACE_OUTER_BOUND('',#94,.T.);
#61=FACE_OUTER_BOUND('',#95,.T.);
#62=FACE_OUTER_BOUND('',#96,.T.);
#63=FACE_OUTER_BOUND('',#97,.T.);
#64=FACE_OUTER_BOUND('',#98,.T.);
#65=FACE_OUTER_BOUND('',#99,.T.);
#66=FACE_OUTER_BOUND('',#100,.T.);
#67=FACE_OUTER_BOUND('',#101,.T.);
#68=FACE_OUTER_BOUND('',#102,.T.);
#69=FACE_OUTER_BOUND('',#103,.T.);
#70=FACE_OUTER_BOUND('',#104,.T.);
#71=FACE_OUTER_BOUND('',#105,.T.);
#72=FACE_OUTER_BOUND('',#106,.T.);
#73=FACE_OUTER_BOUND('',#107,.T.);
#74=FACE_OUTER_BOUND('',#108,.T.);
#75=FACE_OUTER_BOUND('',#109,.T.);
#76=FACE_OUTER_BOUND('',#111,.T.);
#77=EDGE_LOOP('',(#377,#378,#379,#380));
#78=EDGE_LOOP('',(#381));
#79=EDGE_LOOP('',(#382,#383,#384,#385));
#80=EDGE_LOOP('',(#386));
#81=EDGE_LOOP('',(#387,#388,#389,#390));
#82=EDGE_LOOP('',(#391));
#83=EDGE_LOOP('',(#392,#393,#394,#395));
#84=EDGE_LOOP('',(#396));
#85=EDGE_LOOP('',(#397,#398,#399,#400));
#86=EDGE_LOOP('',(#401));
#87=EDGE_LOOP('',(#402,#403,#404,#405));
#88=EDGE_LOOP('',(#406));
#89=EDGE_LOOP('',(#407,#408,#409,#410));
#90=EDGE_LOOP('',(#411,#412,#413,#414));
#91=EDGE_LOOP('',(#415,#416,#417,#418));
#92=EDGE_LOOP('',(#419,#420,#421,#422));
#93=EDGE_LOOP('',(#423,#424,#425,#426));
#94=EDGE_LOOP('',(#427,#428,#429,#430));
#95=EDGE_LOOP('',(#431,#432,#433,#434));
#96=EDGE_LOOP('',(#435,#436,#437,#438));
#97=EDGE_LOOP('',(#439,#440,#441,#442));
#98=EDGE_LOOP('',(#443,#444,#445,#446));
#99=EDGE_LOOP('',(#447,#448,#449,#450));
#100=EDGE_LOOP('',(#451,#452,#453,#454));
#101=EDGE_LOOP('',(#455,#456,#457,#458));
#102=EDGE_LOOP('',(#459,#460,#461,#462));
#103=EDGE_LOOP('',(#463,#464,#465,#466));
#104=EDGE_LOOP('',(#467,#468,#469,#470));
#105=EDGE_LOOP('',(#471,#472,#473,#474));
#106=EDGE_LOOP('',(#475,#476,#477,#478));
#107=EDGE_LOOP('',(#479,#480,#481,#482));
#108=EDGE_LOOP('',(#483,#484,#485,#486));
#109=EDGE_LOOP('',(#487,#488,#489,#490,#491,#492,#493,#494));
#110=EDGE_LOOP('',(#495,#496,#497,#498,#499,#500,#501,#502,#503,#504,#505,
#506));
#111=EDGE_LOOP('',(#507,#508,#509,#510,#511,#512,#513,#514));
#112=EDGE_LOOP('',(#515));
#113=EDGE_LOOP('',(#516));
#114=EDGE_LOOP('',(#517));
#115=EDGE_LOOP('',(#518));
#116=EDGE_LOOP('',(#519));
#117=EDGE_LOOP('',(#520));
#118=EDGE_LOOP('',(#521,#522,#523,#524,#525,#526,#527,#528,#529,#530,#531,
#532));
#119=LINE('',#838,#169);
#120=LINE('',#845,#170);
#121=LINE('',#852,#171);
#122=LINE('',#859,#172);
#123=LINE('',#866,#173);
#124=LINE('',#873,#174);
#125=LINE('',#879,#175);
#126=LINE('',#881,#176);
#127=LINE('',#883,#177);
#128=LINE('',#884,#178);
#129=LINE('',#890,#179);
#130=LINE('',#893,#180);
#131=LINE('',#895,#181);
#132=LINE('',#896,#182);
#133=LINE('',#902,#183);
#134=LINE('',#905,#184);
#135=LINE('',#907,#185);
#136=LINE('',#908,#186);
#137=LINE('',#914,#187);
#138=LINE('',#917,#188);
#139=LINE('',#919,#189);
#140=LINE('',#920,#190);
#141=LINE('',#926,#191);
#142=LINE('',#929,#192);
#143=LINE('',#931,#193);
#144=LINE('',#932,#194);
#145=LINE('',#935,#195);
#146=LINE('',#937,#196);
#147=LINE('',#938,#197);
#148=LINE('',#941,#198);
#149=LINE('',#943,#199);
#150=LINE('',#944,#200);
#151=LINE('',#946,#201);
#152=LINE('',#947,#202);
#153=LINE('',#951,#203);
#154=LINE('',#953,#204);
#155=LINE('',#955,#205);
#156=LINE('',#956,#206);
#157=LINE('',#962,#207);
#158=LINE('',#965,#208);
#159=LINE('',#967,#209);
#160=LINE('',#968,#210);
#161=LINE('',#974,#211);
#162=LINE('',#977,#212);
#163=LINE('',#979,#213);
#164=LINE('',#980,#214);
#165=LINE('',#986,#215);
#166=LINE('',#989,#216);
#167=LINE('',#991,#217);
#168=LINE('',#992,#218);
#169=VECTOR('',#663,1.425);
#170=VECTOR('',#672,1.425);
#171=VECTOR('',#681,1.425);
#172=VECTOR('',#690,1.425);
#173=VECTOR('',#699,1.425);
#174=VECTOR('',#708,1.425);
#175=VECTOR('',#715,10.);
#176=VECTOR('',#716,10.);
#177=VECTOR('',#717,10.);
#178=VECTOR('',#718,10.);
#179=VECTOR('',#725,10.);
#180=VECTOR('',#728,10.);
#181=VECTOR('',#729,10.);
#182=VECTOR('',#730,10.);
#183=VECTOR('',#737,10.);
#184=VECTOR('',#740,10.);
#185=VECTOR('',#741,10.);
#186=VECTOR('',#742,10.);
#187=VECTOR('',#749,10.);
#188=VECTOR('',#752,10.);
#189=VECTOR('',#753,10.);
#190=VECTOR('',#754,10.);
#191=VECTOR('',#761,10.);
#192=VECTOR('',#764,10.);
#193=VECTOR('',#765,10.);
#194=VECTOR('',#766,10.);
#195=VECTOR('',#769,10.);
#196=VECTOR('',#770,10.);
#197=VECTOR('',#771,10.);
#198=VECTOR('',#774,10.);
#199=VECTOR('',#775,10.);
#200=VECTOR('',#776,10.);
#201=VECTOR('',#779,10.);
#202=VECTOR('',#780,10.);
#203=VECTOR('',#783,10.);
#204=VECTOR('',#784,10.);
#205=VECTOR('',#785,10.);
#206=VECTOR('',#786,10.);
#207=VECTOR('',#793,10.);
#208=VECTOR('',#796,10.);
#209=VECTOR('',#797,10.);
#210=VECTOR('',#798,10.);
#211=VECTOR('',#805,10.);
#212=VECTOR('',#808,10.);
#213=VECTOR('',#809,10.);
#214=VECTOR('',#810,10.);
#215=VECTOR('',#817,10.);
#216=VECTOR('',#820,10.);
#217=VECTOR('',#821,10.);
#218=VECTOR('',#822,10.);
#219=CIRCLE('',#596,1.425);
#220=CIRCLE('',#597,1.425);
#221=CIRCLE('',#600,1.425);
#222=CIRCLE('',#601,1.425);
#223=CIRCLE('',#604,1.425);
#224=CIRCLE('',#605,1.425);
#225=CIRCLE('',#608,1.425);
#226=CIRCLE('',#609,1.425);
#227=CIRCLE('',#612,1.425);
#228=CIRCLE('',#613,1.425);
#229=CIRCLE('',#616,1.425);
#230=CIRCLE('',#617,1.425);
#231=CIRCLE('',#621,6.5);
#232=CIRCLE('',#622,6.5);
#233=CIRCLE('',#625,6.50000000000001);
#234=CIRCLE('',#626,6.50000000000001);
#235=CIRCLE('',#629,6.5);
#236=CIRCLE('',#630,6.5);
#237=CIRCLE('',#633,6.49999999999999);
#238=CIRCLE('',#634,6.49999999999999);
#239=CIRCLE('',#641,2.5);
#240=CIRCLE('',#642,2.5);
#241=CIRCLE('',#645,2.5);
#242=CIRCLE('',#646,2.5);
#243=CIRCLE('',#649,2.5);
#244=CIRCLE('',#650,2.5);
#245=CIRCLE('',#653,2.5);
#246=CIRCLE('',#654,2.5);
#247=VERTEX_POINT('',#835);
#248=VERTEX_POINT('',#837);
#249=VERTEX_POINT('',#842);
#250=VERTEX_POINT('',#844);
#251=VERTEX_POINT('',#849);
#252=VERTEX_POINT('',#851);
#253=VERTEX_POINT('',#856);
#254=VERTEX_POINT('',#858);
#255=VERTEX_POINT('',#863);
#256=VERTEX_POINT('',#865);
#257=VERTEX_POINT('',#870);
#258=VERTEX_POINT('',#872);
#259=VERTEX_POINT('',#877);
#260=VERTEX_POINT('',#878);
#261=VERTEX_POINT('',#880);
#262=VERTEX_POINT('',#882);
#263=VERTEX_POINT('',#886);
#264=VERTEX_POINT('',#888);
#265=VERTEX_POINT('',#892);
#266=VERTEX_POINT('',#894);
#267=VERTEX_POINT('',#898);
#268=VERTEX_POINT('',#900);
#269=VERTEX_POINT('',#904);
#270=VERTEX_POINT('',#906);
#271=VERTEX_POINT('',#910);
#272=VERTEX_POINT('',#912);
#273=VERTEX_POINT('',#916);
#274=VERTEX_POINT('',#918);
#275=VERTEX_POINT('',#922);
#276=VERTEX_POINT('',#924);
#277=VERTEX_POINT('',#928);
#278=VERTEX_POINT('',#930);
#279=VERTEX_POINT('',#934);
#280=VERTEX_POINT('',#936);
#281=VERTEX_POINT('',#940);
#282=VERTEX_POINT('',#942);
#283=VERTEX_POINT('',#949);
#284=VERTEX_POINT('',#950);
#285=VERTEX_POINT('',#952);
#286=VERTEX_POINT('',#954);
#287=VERTEX_POINT('',#958);
#288=VERTEX_POINT('',#960);
#289=VERTEX_POINT('',#964);
#290=VERTEX_POINT('',#966);
#291=VERTEX_POINT('',#970);
#292=VERTEX_POINT('',#972);
#293=VERTEX_POINT('',#976);
#294=VERTEX_POINT('',#978);
#295=VERTEX_POINT('',#982);
#296=VERTEX_POINT('',#984);
#297=VERTEX_POINT('',#988);
#298=VERTEX_POINT('',#990);
#299=EDGE_CURVE('',#247,#247,#219,.T.);
#300=EDGE_CURVE('',#247,#248,#119,.T.);
#301=EDGE_CURVE('',#248,#248,#220,.T.);
#302=EDGE_CURVE('',#249,#249,#221,.T.);
#303=EDGE_CURVE('',#249,#250,#120,.T.);
#304=EDGE_CURVE('',#250,#250,#222,.T.);
#305=EDGE_CURVE('',#251,#251,#223,.T.);
#306=EDGE_CURVE('',#251,#252,#121,.T.);
#307=EDGE_CURVE('',#252,#252,#224,.T.);
#308=EDGE_CURVE('',#253,#253,#225,.T.);
#309=EDGE_CURVE('',#253,#254,#122,.T.);
#310=EDGE_CURVE('',#254,#254,#226,.T.);
#311=EDGE_CURVE('',#255,#255,#227,.T.);
#312=EDGE_CURVE('',#255,#256,#123,.T.);
#313=EDGE_CURVE('',#256,#256,#228,.T.);
#314=EDGE_CURVE('',#257,#257,#229,.T.);
#315=EDGE_CURVE('',#257,#258,#124,.T.);
#316=EDGE_CURVE('',#258,#258,#230,.T.);
#317=EDGE_CURVE('',#259,#260,#125,.T.);
#318=EDGE_CURVE('',#261,#259,#126,.T.);
#319=EDGE_CURVE('',#262,#261,#127,.T.);
#320=EDGE_CURVE('',#262,#260,#128,.T.);
#321=EDGE_CURVE('',#260,#263,#231,.T.);
#322=EDGE_CURVE('',#264,#262,#232,.T.);
#323=EDGE_CURVE('',#264,#263,#129,.T.);
#324=EDGE_CURVE('',#263,#265,#130,.T.);
#325=EDGE_CURVE('',#266,#264,#131,.T.);
#326=EDGE_CURVE('',#266,#265,#132,.T.);
#327=EDGE_CURVE('',#265,#267,#233,.T.);
#328=EDGE_CURVE('',#268,#266,#234,.T.);
#329=EDGE_CURVE('',#268,#267,#133,.T.);
#330=EDGE_CURVE('',#267,#269,#134,.T.);
#331=EDGE_CURVE('',#270,#268,#135,.T.);
#332=EDGE_CURVE('',#270,#269,#136,.T.);
#333=EDGE_CURVE('',#269,#271,#235,.T.);
#334=EDGE_CURVE('',#272,#270,#236,.T.);
#335=EDGE_CURVE('',#272,#271,#137,.T.);
#336=EDGE_CURVE('',#271,#273,#138,.T.);
#337=EDGE_CURVE('',#274,#272,#139,.T.);
#338=EDGE_CURVE('',#274,#273,#140,.T.);
#339=EDGE_CURVE('',#273,#275,#237,.T.);
#340=EDGE_CURVE('',#276,#274,#238,.T.);
#341=EDGE_CURVE('',#276,#275,#141,.T.);
#342=EDGE_CURVE('',#275,#277,#142,.T.);
#343=EDGE_CURVE('',#278,#276,#143,.T.);
#344=EDGE_CURVE('',#278,#277,#144,.T.);
#345=EDGE_CURVE('',#277,#279,#145,.T.);
#346=EDGE_CURVE('',#280,#278,#146,.T.);
#347=EDGE_CURVE('',#280,#279,#147,.T.);
#348=EDGE_CURVE('',#279,#281,#148,.T.);
#349=EDGE_CURVE('',#282,#280,#149,.T.);
#350=EDGE_CURVE('',#282,#281,#150,.T.);
#351=EDGE_CURVE('',#281,#259,#151,.T.);
#352=EDGE_CURVE('',#261,#282,#152,.T.);
#353=EDGE_CURVE('',#283,#284,#153,.T.);
#354=EDGE_CURVE('',#283,#285,#154,.T.);
#355=EDGE_CURVE('',#286,#285,#155,.T.);
#356=EDGE_CURVE('',#284,#286,#156,.T.);
#357=EDGE_CURVE('',#287,#284,#239,.T.);
#358=EDGE_CURVE('',#288,#286,#240,.T.);
#359=EDGE_CURVE('',#287,#288,#157,.T.);
#360=EDGE_CURVE('',#287,#289,#158,.T.);
#361=EDGE_CURVE('',#290,#288,#159,.T.);
#362=EDGE_CURVE('',#289,#290,#160,.T.);
#363=EDGE_CURVE('',#291,#289,#241,.T.);
#364=EDGE_CURVE('',#292,#290,#242,.T.);
#365=EDGE_CURVE('',#291,#292,#161,.T.);
#366=EDGE_CURVE('',#291,#293,#162,.T.);
#367=EDGE_CURVE('',#294,#292,#163,.T.);
#368=EDGE_CURVE('',#293,#294,#164,.T.);
#369=EDGE_CURVE('',#295,#293,#243,.T.);
#370=EDGE_CURVE('',#296,#294,#244,.T.);
#371=EDGE_CURVE('',#295,#296,#165,.T.);
#372=EDGE_CURVE('',#295,#297,#166,.T.);
#373=EDGE_CURVE('',#298,#296,#167,.T.);
#374=EDGE_CURVE('',#297,#298,#168,.T.);
#375=EDGE_CURVE('',#283,#297,#245,.T.);
#376=EDGE_CURVE('',#285,#298,#246,.T.);
#377=ORIENTED_EDGE('',*,*,#299,.F.);
#378=ORIENTED_EDGE('',*,*,#300,.T.);
#379=ORIENTED_EDGE('',*,*,#301,.F.);
#380=ORIENTED_EDGE('',*,*,#300,.F.);
#381=ORIENTED_EDGE('',*,*,#299,.T.);
#382=ORIENTED_EDGE('',*,*,#302,.F.);
#383=ORIENTED_EDGE('',*,*,#303,.T.);
#384=ORIENTED_EDGE('',*,*,#304,.F.);
#385=ORIENTED_EDGE('',*,*,#303,.F.);
#386=ORIENTED_EDGE('',*,*,#302,.T.);
#387=ORIENTED_EDGE('',*,*,#305,.F.);
#388=ORIENTED_EDGE('',*,*,#306,.T.);
#389=ORIENTED_EDGE('',*,*,#307,.F.);
#390=ORIENTED_EDGE('',*,*,#306,.F.);
#391=ORIENTED_EDGE('',*,*,#305,.T.);
#392=ORIENTED_EDGE('',*,*,#308,.F.);
#393=ORIENTED_EDGE('',*,*,#309,.T.);
#394=ORIENTED_EDGE('',*,*,#310,.F.);
#395=ORIENTED_EDGE('',*,*,#309,.F.);
#396=ORIENTED_EDGE('',*,*,#308,.T.);
#397=ORIENTED_EDGE('',*,*,#311,.F.);
#398=ORIENTED_EDGE('',*,*,#312,.T.);
#399=ORIENTED_EDGE('',*,*,#313,.F.);
#400=ORIENTED_EDGE('',*,*,#312,.F.);
#401=ORIENTED_EDGE('',*,*,#311,.T.);
#402=ORIENTED_EDGE('',*,*,#314,.F.);
#403=ORIENTED_EDGE('',*,*,#315,.T.);
#404=ORIENTED_EDGE('',*,*,#316,.F.);
#405=ORIENTED_EDGE('',*,*,#315,.F.);
#406=ORIENTED_EDGE('',*,*,#314,.T.);
#407=ORIENTED_EDGE('',*,*,#317,.F.);
#408=ORIENTED_EDGE('',*,*,#318,.F.);
#409=ORIENTED_EDGE('',*,*,#319,.F.);
#410=ORIENTED_EDGE('',*,*,#320,.T.);
#411=ORIENTED_EDGE('',*,*,#321,.F.);
#412=ORIENTED_EDGE('',*,*,#320,.F.);
#413=ORIENTED_EDGE('',*,*,#322,.F.);
#414=ORIENTED_EDGE('',*,*,#323,.T.);
#415=ORIENTED_EDGE('',*,*,#324,.F.);
#416=ORIENTED_EDGE('',*,*,#323,.F.);
#417=ORIENTED_EDGE('',*,*,#325,.F.);
#418=ORIENTED_EDGE('',*,*,#326,.T.);
#419=ORIENTED_EDGE('',*,*,#327,.F.);
#420=ORIENTED_EDGE('',*,*,#326,.F.);
#421=ORIENTED_EDGE('',*,*,#328,.F.);
#422=ORIENTED_EDGE('',*,*,#329,.T.);
#423=ORIENTED_EDGE('',*,*,#330,.F.);
#424=ORIENTED_EDGE('',*,*,#329,.F.);
#425=ORIENTED_EDGE('',*,*,#331,.F.);
#426=ORIENTED_EDGE('',*,*,#332,.T.);
#427=ORIENTED_EDGE('',*,*,#333,.F.);
#428=ORIENTED_EDGE('',*,*,#332,.F.);
#429=ORIENTED_EDGE('',*,*,#334,.F.);
#430=ORIENTED_EDGE('',*,*,#335,.T.);
#431=ORIENTED_EDGE('',*,*,#336,.F.);
#432=ORIENTED_EDGE('',*,*,#335,.F.);
#433=ORIENTED_EDGE('',*,*,#337,.F.);
#434=ORIENTED_EDGE('',*,*,#338,.T.);
#435=ORIENTED_EDGE('',*,*,#339,.F.);
#436=ORIENTED_EDGE('',*,*,#338,.F.);
#437=ORIENTED_EDGE('',*,*,#340,.F.);
#438=ORIENTED_EDGE('',*,*,#341,.T.);
#439=ORIENTED_EDGE('',*,*,#342,.F.);
#440=ORIENTED_EDGE('',*,*,#341,.F.);
#441=ORIENTED_EDGE('',*,*,#343,.F.);
#442=ORIENTED_EDGE('',*,*,#344,.T.);
#443=ORIENTED_EDGE('',*,*,#345,.F.);
#444=ORIENTED_EDGE('',*,*,#344,.F.);
#445=ORIENTED_EDGE('',*,*,#346,.F.);
#446=ORIENTED_EDGE('',*,*,#347,.T.);
#447=ORIENTED_EDGE('',*,*,#348,.F.);
#448=ORIENTED_EDGE('',*,*,#347,.F.);
#449=ORIENTED_EDGE('',*,*,#349,.F.);
#450=ORIENTED_EDGE('',*,*,#350,.T.);
#451=ORIENTED_EDGE('',*,*,#351,.F.);
#452=ORIENTED_EDGE('',*,*,#350,.F.);
#453=ORIENTED_EDGE('',*,*,#352,.F.);
#454=ORIENTED_EDGE('',*,*,#318,.T.);
#455=ORIENTED_EDGE('',*,*,#353,.F.);
#456=ORIENTED_EDGE('',*,*,#354,.T.);
#457=ORIENTED_EDGE('',*,*,#355,.F.);
#458=ORIENTED_EDGE('',*,*,#356,.F.);
#459=ORIENTED_EDGE('',*,*,#357,.T.);
#460=ORIENTED_EDGE('',*,*,#356,.T.);
#461=ORIENTED_EDGE('',*,*,#358,.F.);
#462=ORIENTED_EDGE('',*,*,#359,.F.);
#463=ORIENTED_EDGE('',*,*,#360,.F.);
#464=ORIENTED_EDGE('',*,*,#359,.T.);
#465=ORIENTED_EDGE('',*,*,#361,.F.);
#466=ORIENTED_EDGE('',*,*,#362,.F.);
#467=ORIENTED_EDGE('',*,*,#363,.T.);
#468=ORIENTED_EDGE('',*,*,#362,.T.);
#469=ORIENTED_EDGE('',*,*,#364,.F.);
#470=ORIENTED_EDGE('',*,*,#365,.F.);
#471=ORIENTED_EDGE('',*,*,#366,.F.);
#472=ORIENTED_EDGE('',*,*,#365,.T.);
#473=ORIENTED_EDGE('',*,*,#367,.F.);
#474=ORIENTED_EDGE('',*,*,#368,.F.);
#475=ORIENTED_EDGE('',*,*,#369,.T.);
#476=ORIENTED_EDGE('',*,*,#368,.T.);
#477=ORIENTED_EDGE('',*,*,#370,.F.);
#478=ORIENTED_EDGE('',*,*,#371,.F.);
#479=ORIENTED_EDGE('',*,*,#372,.F.);
#480=ORIENTED_EDGE('',*,*,#371,.T.);
#481=ORIENTED_EDGE('',*,*,#373,.F.);
#482=ORIENTED_EDGE('',*,*,#374,.F.);
#483=ORIENTED_EDGE('',*,*,#375,.T.);
#484=ORIENTED_EDGE('',*,*,#374,.T.);
#485=ORIENTED_EDGE('',*,*,#376,.F.);
#486=ORIENTED_EDGE('',*,*,#354,.F.);
#487=ORIENTED_EDGE('',*,*,#376,.T.);
#488=ORIENTED_EDGE('',*,*,#373,.T.);
#489=ORIENTED_EDGE('',*,*,#370,.T.);
#490=ORIENTED_EDGE('',*,*,#367,.T.);
#491=ORIENTED_EDGE('',*,*,#364,.T.);
#492=ORIENTED_EDGE('',*,*,#361,.T.);
#493=ORIENTED_EDGE('',*,*,#358,.T.);
#494=ORIENTED_EDGE('',*,*,#355,.T.);
#495=ORIENTED_EDGE('',*,*,#336,.T.);
#496=ORIENTED_EDGE('',*,*,#339,.T.);
#497=ORIENTED_EDGE('',*,*,#342,.T.);
#498=ORIENTED_EDGE('',*,*,#345,.T.);
#499=ORIENTED_EDGE('',*,*,#348,.T.);
#500=ORIENTED_EDGE('',*,*,#351,.T.);
#501=ORIENTED_EDGE('',*,*,#317,.T.);
#502=ORIENTED_EDGE('',*,*,#321,.T.);
#503=ORIENTED_EDGE('',*,*,#324,.T.);
#504=ORIENTED_EDGE('',*,*,#327,.T.);
#505=ORIENTED_EDGE('',*,*,#330,.T.);
#506=ORIENTED_EDGE('',*,*,#333,.T.);
#507=ORIENTED_EDGE('',*,*,#375,.F.);
#508=ORIENTED_EDGE('',*,*,#353,.T.);
#509=ORIENTED_EDGE('',*,*,#357,.F.);
#510=ORIENTED_EDGE('',*,*,#360,.T.);
#511=ORIENTED_EDGE('',*,*,#363,.F.);
#512=ORIENTED_EDGE('',*,*,#366,.T.);
#513=ORIENTED_EDGE('',*,*,#369,.F.);
#514=ORIENTED_EDGE('',*,*,#372,.T.);
#515=ORIENTED_EDGE('',*,*,#301,.T.);
#516=ORIENTED_EDGE('',*,*,#304,.T.);
#517=ORIENTED_EDGE('',*,*,#307,.T.);
#518=ORIENTED_EDGE('',*,*,#310,.T.);
#519=ORIENTED_EDGE('',*,*,#313,.T.);
#520=ORIENTED_EDGE('',*,*,#316,.T.);
#521=ORIENTED_EDGE('',*,*,#337,.T.);
#522=ORIENTED_EDGE('',*,*,#334,.T.);
#523=ORIENTED_EDGE('',*,*,#331,.T.);
#524=ORIENTED_EDGE('',*,*,#328,.T.);
#525=ORIENTED_EDGE('',*,*,#325,.T.);
#526=ORIENTED_EDGE('',*,*,#322,.T.);
#527=ORIENTED_EDGE('',*,*,#319,.T.);
#528=ORIENTED_EDGE('',*,*,#352,.T.);
#529=ORIENTED_EDGE('',*,*,#349,.T.);
#530=ORIENTED_EDGE('',*,*,#346,.T.);
#531=ORIENTED_EDGE('',*,*,#343,.T.);
#532=ORIENTED_EDGE('',*,*,#340,.T.);
#533=CYLINDRICAL_SURFACE('',#595,1.425);
#534=CYLINDRICAL_SURFACE('',#599,1.425);
#535=CYLINDRICAL_SURFACE('',#603,1.425);
#536=CYLINDRICAL_SURFACE('',#607,1.425);
#537=CYLINDRICAL_SURFACE('',#611,1.425);
#538=CYLINDRICAL_SURFACE('',#615,1.425);
#539=CYLINDRICAL_SURFACE('',#620,6.5);
#540=CYLINDRICAL_SURFACE('',#624,6.50000000000001);
#541=CYLINDRICAL_SURFACE('',#628,6.5);
#542=CYLINDRICAL_SURFACE('',#632,6.49999999999999);
#543=CYLINDRICAL_SURFACE('',#640,2.5);
#544=CYLINDRICAL_SURFACE('',#644,2.5);
#545=CYLINDRICAL_SURFACE('',#648,2.5);
#546=CYLINDRICAL_SURFACE('',#652,2.5);
#547=ADVANCED_FACE('',(#43),#533,.T.);
#548=ADVANCED_FACE('',(#44),#23,.F.);
#549=ADVANCED_FACE('',(#45),#534,.T.);
#550=ADVANCED_FACE('',(#46),#24,.F.);
#551=ADVANCED_FACE('',(#47),#535,.T.);
#552=ADVANCED_FACE('',(#48),#25,.F.);
#553=ADVANCED_FACE('',(#49),#536,.T.);
#554=ADVANCED_FACE('',(#50),#26,.F.);
#555=ADVANCED_FACE('',(#51),#537,.T.);
#556=ADVANCED_FACE('',(#52),#27,.F.);
#557=ADVANCED_FACE('',(#53),#538,.T.);
#558=ADVANCED_FACE('',(#54),#28,.F.);
#559=ADVANCED_FACE('',(#55),#29,.F.);
#560=ADVANCED_FACE('',(#56),#539,.F.);
#561=ADVANCED_FACE('',(#57),#30,.F.);
#562=ADVANCED_FACE('',(#58),#540,.F.);
#563=ADVANCED_FACE('',(#59),#31,.F.);
#564=ADVANCED_FACE('',(#60),#541,.F.);
#565=ADVANCED_FACE('',(#61),#32,.F.);
#566=ADVANCED_FACE('',(#62),#542,.F.);
#567=ADVANCED_FACE('',(#63),#33,.F.);
#568=ADVANCED_FACE('',(#64),#34,.F.);
#569=ADVANCED_FACE('',(#65),#35,.F.);
#570=ADVANCED_FACE('',(#66),#36,.F.);
#571=ADVANCED_FACE('',(#67),#37,.T.);
#572=ADVANCED_FACE('',(#68),#543,.T.);
#573=ADVANCED_FACE('',(#69),#38,.T.);
#574=ADVANCED_FACE('',(#70),#544,.T.);
#575=ADVANCED_FACE('',(#71),#39,.T.);
#576=ADVANCED_FACE('',(#72),#545,.T.);
#577=ADVANCED_FACE('',(#73),#40,.T.);
#578=ADVANCED_FACE('',(#74),#546,.T.);
#579=ADVANCED_FACE('',(#75,#15),#41,.T.);
#580=ADVANCED_FACE('',(#76,#16,#17,#18,#19,#20,#21,#22),#42,.F.);
#581=CLOSED_SHELL('',(#547,#548,#549,#550,#551,#552,#553,#554,#555,#556,
#557,#558,#559,#560,#561,#562,#563,#564,#565,#566,#567,#568,#569,#570,#571,
#572,#573,#574,#575,#576,#577,#578,#579,#580));
#582=DERIVED_UNIT_ELEMENT(#584,1.);
#583=DERIVED_UNIT_ELEMENT(#1003,-3.);
#584=(
MASS_UNIT()
NAMED_UNIT(*)
SI_UNIT(.KILO.,.GRAM.)
);
#585=DERIVED_UNIT((#582,#583));
#586=MEASURE_REPRESENTATION_ITEM('density measure',
POSITIVE_RATIO_MEASURE(7850.),#585);
#587=PROPERTY_DEFINITION_REPRESENTATION(#592,#589);
#588=PROPERTY_DEFINITION_REPRESENTATION(#593,#590);
#589=REPRESENTATION('material name',(#591),#1000);
#590=REPRESENTATION('density',(#586),#1000);
#591=DESCRIPTIVE_REPRESENTATION_ITEM('Steel','Steel');
#592=PROPERTY_DEFINITION('material property','material name',#1010);
#593=PROPERTY_DEFINITION('material property','density of part',#1010);
#594=AXIS2_PLACEMENT_3D('',#833,#657,#658);
#595=AXIS2_PLACEMENT_3D('',#834,#659,#660);
#596=AXIS2_PLACEMENT_3D('',#836,#661,#662);
#597=AXIS2_PLACEMENT_3D('',#839,#664,#665);
#598=AXIS2_PLACEMENT_3D('',#840,#666,#667);
#599=AXIS2_PLACEMENT_3D('',#841,#668,#669);
#600=AXIS2_PLACEMENT_3D('',#843,#670,#671);
#601=AXIS2_PLACEMENT_3D('',#846,#673,#674);
#602=AXIS2_PLACEMENT_3D('',#847,#675,#676);
#603=AXIS2_PLACEMENT_3D('',#848,#677,#678);
#604=AXIS2_PLACEMENT_3D('',#850,#679,#680);
#605=AXIS2_PLACEMENT_3D('',#853,#682,#683);
#606=AXIS2_PLACEMENT_3D('',#854,#684,#685);
#607=AXIS2_PLACEMENT_3D('',#855,#686,#687);
#608=AXIS2_PLACEMENT_3D('',#857,#688,#689);
#609=AXIS2_PLACEMENT_3D('',#860,#691,#692);
#610=AXIS2_PLACEMENT_3D('',#861,#693,#694);
#611=AXIS2_PLACEMENT_3D('',#862,#695,#696);
#612=AXIS2_PLACEMENT_3D('',#864,#697,#698);
#613=AXIS2_PLACEMENT_3D('',#867,#700,#701);
#614=AXIS2_PLACEMENT_3D('',#868,#702,#703);
#615=AXIS2_PLACEMENT_3D('',#869,#704,#705);
#616=AXIS2_PLACEMENT_3D('',#871,#706,#707);
#617=AXIS2_PLACEMENT_3D('',#874,#709,#710);
#618=AXIS2_PLACEMENT_3D('',#875,#711,#712);
#619=AXIS2_PLACEMENT_3D('',#876,#713,#714);
#620=AXIS2_PLACEMENT_3D('',#885,#719,#720);
#621=AXIS2_PLACEMENT_3D('',#887,#721,#722);
#622=AXIS2_PLACEMENT_3D('',#889,#723,#724);
#623=AXIS2_PLACEMENT_3D('',#891,#726,#727);
#624=AXIS2_PLACEMENT_3D('',#897,#731,#732);
#625=AXIS2_PLACEMENT_3D('',#899,#733,#734);
#626=AXIS2_PLACEMENT_3D('',#901,#735,#736);
#627=AXIS2_PLACEMENT_3D('',#903,#738,#739);
#628=AXIS2_PLACEMENT_3D('',#909,#743,#744);
#629=AXIS2_PLACEMENT_3D('',#911,#745,#746);
#630=AXIS2_PLACEMENT_3D('',#913,#747,#748);
#631=AXIS2_PLACEMENT_3D('',#915,#750,#751);
#632=AXIS2_PLACEMENT_3D('',#921,#755,#756);
#633=AXIS2_PLACEMENT_3D('',#923,#757,#758);
#634=AXIS2_PLACEMENT_3D('',#925,#759,#760);
#635=AXIS2_PLACEMENT_3D('',#927,#762,#763);
#636=AXIS2_PLACEMENT_3D('',#933,#767,#768);
#637=AXIS2_PLACEMENT_3D('',#939,#772,#773);
#638=AXIS2_PLACEMENT_3D('',#945,#777,#778);
#639=AXIS2_PLACEMENT_3D('',#948,#781,#782);
#640=AXIS2_PLACEMENT_3D('',#957,#787,#788);
#641=AXIS2_PLACEMENT_3D('',#959,#789,#790);
#642=AXIS2_PLACEMENT_3D('',#961,#791,#792);
#643=AXIS2_PLACEMENT_3D('',#963,#794,#795);
#644=AXIS2_PLACEMENT_3D('',#969,#799,#800);
#645=AXIS2_PLACEMENT_3D('',#971,#801,#802);
#646=AXIS2_PLACEMENT_3D('',#973,#803,#804);
#647=AXIS2_PLACEMENT_3D('',#975,#806,#807);
#648=AXIS2_PLACEMENT_3D('',#981,#811,#812);
#649=AXIS2_PLACEMENT_3D('',#983,#813,#814);
#650=AXIS2_PLACEMENT_3D('',#985,#815,#816);
#651=AXIS2_PLACEMENT_3D('',#987,#818,#819);
#652=AXIS2_PLACEMENT_3D('',#993,#823,#824);
#653=AXIS2_PLACEMENT_3D('',#994,#825,#826);
#654=AXIS2_PLACEMENT_3D('',#995,#827,#828);
#655=AXIS2_PLACEMENT_3D('',#996,#829,#830);
#656=AXIS2_PLACEMENT_3D('',#997,#831,#832);
#657=DIRECTION('axis',(0.,0.,1.));
#658=DIRECTION('refdir',(1.,0.,0.));
#659=DIRECTION('center_axis',(0.,-1.,0.));
#660=DIRECTION('ref_axis',(1.,0.,0.));
#661=DIRECTION('center_axis',(0.,-1.,0.));
#662=DIRECTION('ref_axis',(1.,0.,0.));
#663=DIRECTION('',(0.,1.,0.));
#664=DIRECTION('center_axis',(0.,1.,0.));
#665=DIRECTION('ref_axis',(1.,0.,0.));
#666=DIRECTION('center_axis',(0.,1.,0.));
#667=DIRECTION('ref_axis',(1.,0.,0.));
#668=DIRECTION('center_axis',(0.,-1.,0.));
#669=DIRECTION('ref_axis',(1.,0.,0.));
#670=DIRECTION('center_axis',(0.,-1.,0.));
#671=DIRECTION('ref_axis',(1.,0.,0.));
#672=DIRECTION('',(0.,1.,0.));
#673=DIRECTION('center_axis',(0.,1.,0.));
#674=DIRECTION('ref_axis',(1.,0.,0.));
#675=DIRECTION('center_axis',(0.,1.,0.));
#676=DIRECTION('ref_axis',(1.,0.,0.));
#677=DIRECTION('center_axis',(0.,-1.,0.));
#678=DIRECTION('ref_axis',(1.,0.,0.));
#679=DIRECTION('center_axis',(0.,-1.,0.));
#680=DIRECTION('ref_axis',(1.,0.,0.));
#681=DIRECTION('',(0.,1.,0.));
#682=DIRECTION('center_axis',(0.,1.,0.));
#683=DIRECTION('ref_axis',(1.,0.,0.));
#684=DIRECTION('center_axis',(0.,1.,0.));
#685=DIRECTION('ref_axis',(1.,0.,0.));
#686=DIRECTION('center_axis',(0.,-1.,0.));
#687=DIRECTION('ref_axis',(1.,0.,0.));
#688=DIRECTION('center_axis',(0.,-1.,0.));
#689=DIRECTION('ref_axis',(1.,0.,0.));
#690=DIRECTION('',(0.,1.,0.));
#691=DIRECTION('center_axis',(0.,1.,0.));
#692=DIRECTION('ref_axis',(1.,0.,0.));
#693=DIRECTION('center_axis',(0.,1.,0.));
#694=DIRECTION('ref_axis',(1.,0.,0.));
#695=DIRECTION('center_axis',(0.,-1.,0.));
#696=DIRECTION('ref_axis',(1.,0.,0.));
#697=DIRECTION('center_axis',(0.,-1.,0.));
#698=DIRECTION('ref_axis',(1.,0.,0.));
#699=DIRECTION('',(0.,1.,0.));
#700=DIRECTION('center_axis',(0.,1.,0.));
#701=DIRECTION('ref_axis',(1.,0.,0.));
#702=DIRECTION('center_axis',(0.,1.,0.));
#703=DIRECTION('ref_axis',(1.,0.,0.));
#704=DIRECTION('center_axis',(0.,-1.,0.));
#705=DIRECTION('ref_axis',(1.,0.,0.));
#706=DIRECTION('center_axis',(0.,-1.,0.));
#707=DIRECTION('ref_axis',(1.,0.,0.));
#708=DIRECTION('',(0.,1.,0.));
#709=DIRECTION('center_axis',(0.,1.,0.));
#710=DIRECTION('ref_axis',(1.,0.,0.));
#711=DIRECTION('center_axis',(0.,1.,0.));
#712=DIRECTION('ref_axis',(1.,0.,0.));
#713=DIRECTION('center_axis',(0.,0.,-1.));
#714=DIRECTION('ref_axis',(-1.,0.,0.));
#715=DIRECTION('',(1.,0.,0.));
#716=DIRECTION('',(0.,1.,0.));
#717=DIRECTION('',(-1.,0.,0.));
#718=DIRECTION('',(0.,1.,0.));
#719=DIRECTION('center_axis',(0.,1.,0.));
#720=DIRECTION('ref_axis',(1.,0.,6.83214169000097E-16));
#721=DIRECTION('center_axis',(0.,-1.,0.));
#722=DIRECTION('ref_axis',(1.,0.,6.83214169000097E-16));
#723=DIRECTION('center_axis',(0.,1.,0.));
#724=DIRECTION('ref_axis',(1.,0.,6.83214169000097E-16));
#725=DIRECTION('',(0.,1.,0.));
#726=DIRECTION('center_axis',(1.,0.,0.));
#727=DIRECTION('ref_axis',(0.,0.,-1.));
#728=DIRECTION('',(0.,0.,1.));
#729=DIRECTION('',(0.,0.,-1.));
#730=DIRECTION('',(0.,1.,0.));
#731=DIRECTION('center_axis',(0.,1.,0.));
#732=DIRECTION('ref_axis',(1.02482125350014E-15,0.,1.));
#733=DIRECTION('center_axis',(0.,-1.,0.));
#734=DIRECTION('ref_axis',(1.02482125350014E-15,0.,1.));
#735=DIRECTION('center_axis',(0.,1.,0.));
#736=DIRECTION('ref_axis',(1.02482125350014E-15,0.,1.));
#737=DIRECTION('',(0.,1.,0.));
#738=DIRECTION('center_axis',(0.,0.,1.));
#739=DIRECTION('ref_axis',(1.,0.,0.));
#740=DIRECTION('',(-1.,0.,0.));
#741=DIRECTION('',(1.,0.,0.));
#742=DIRECTION('',(0.,1.,0.));
#743=DIRECTION('center_axis',(0.,1.,0.));
#744=DIRECTION('ref_axis',(-1.,0.,0.));
#745=DIRECTION('center_axis',(0.,-1.,0.));
#746=DIRECTION('ref_axis',(-1.,0.,0.));
#747=DIRECTION('center_axis',(0.,1.,0.));
#748=DIRECTION('ref_axis',(-1.,0.,0.));
#749=DIRECTION('',(0.,1.,0.));
#750=DIRECTION('center_axis',(-1.,0.,0.));
#751=DIRECTION('ref_axis',(0.,0.,1.));
#752=DIRECTION('',(0.,0.,-1.));
#753=DIRECTION('',(0.,0.,1.));
#754=DIRECTION('',(0.,1.,0.));
#755=DIRECTION('center_axis',(0.,1.,0.));
#756=DIRECTION('ref_axis',(1.36642833800019E-15,0.,-1.));
#757=DIRECTION('center_axis',(0.,-1.,0.));
#758=DIRECTION('ref_axis',(1.36642833800019E-15,0.,-1.));
#759=DIRECTION('center_axis',(0.,1.,0.));
#760=DIRECTION('ref_axis',(1.36642833800019E-15,0.,-1.));
#761=DIRECTION('',(0.,1.,0.));
#762=DIRECTION('center_axis',(0.,0.,-1.));
#763=DIRECTION('ref_axis',(-1.,0.,0.));
#764=DIRECTION('',(1.,0.,0.));
#765=DIRECTION('',(-1.,0.,0.));
#766=DIRECTION('',(0.,1.,0.));
#767=DIRECTION('center_axis',(-1.,0.,0.));
#768=DIRECTION('ref_axis',(0.,0.,1.));
#769=DIRECTION('',(0.,0.,-1.));
#770=DIRECTION('',(0.,0.,1.));
#771=DIRECTION('',(0.,1.,0.));
#772=DIRECTION('center_axis',(0.,0.,-1.));
#773=DIRECTION('ref_axis',(-1.,0.,0.));
#774=DIRECTION('',(1.,0.,0.));
#775=DIRECTION('',(-1.,0.,0.));
#776=DIRECTION('',(0.,1.,0.));
#777=DIRECTION('center_axis',(1.,0.,0.));
#778=DIRECTION('ref_axis',(0.,0.,-1.));
#779=DIRECTION('',(0.,0.,1.));
#780=DIRECTION('',(0.,0.,-1.));
#781=DIRECTION('center_axis',(1.,0.,0.));
#782=DIRECTION('ref_axis',(0.,0.,-1.));
#783=DIRECTION('',(0.,0.,1.));
#784=DIRECTION('',(0.,1.,0.));
#785=DIRECTION('',(0.,0.,-1.));
#786=DIRECTION('',(0.,1.,0.));
#787=DIRECTION('center_axis',(0.,1.,0.));
#788=DIRECTION('ref_axis',(0.,0.,1.));
#789=DIRECTION('center_axis',(0.,1.,0.));
#790=DIRECTION('ref_axis',(0.,0.,1.));
#791=DIRECTION('center_axis',(0.,1.,0.));
#792=DIRECTION('ref_axis',(0.,0.,1.));
#793=DIRECTION('',(0.,1.,0.));
#794=DIRECTION('center_axis',(0.,0.,1.));
#795=DIRECTION('ref_axis',(1.,0.,0.));
#796=DIRECTION('',(-1.,0.,0.));
#797=DIRECTION('',(1.,0.,0.));
#798=DIRECTION('',(0.,1.,0.));
#799=DIRECTION('center_axis',(0.,1.,0.));
#800=DIRECTION('ref_axis',(-1.,0.,0.));
#801=DIRECTION('center_axis',(0.,1.,0.));
#802=DIRECTION('ref_axis',(-1.,0.,0.));
#803=DIRECTION('center_axis',(0.,1.,0.));
#804=DIRECTION('ref_axis',(-1.,0.,0.));
#805=DIRECTION('',(0.,1.,0.));
#806=DIRECTION('center_axis',(-1.,0.,0.));
#807=DIRECTION('ref_axis',(0.,0.,1.));
#808=DIRECTION('',(0.,0.,-1.));
#809=DIRECTION('',(0.,0.,1.));
#810=DIRECTION('',(0.,1.,0.));
#811=DIRECTION('center_axis',(0.,1.,0.));
#812=DIRECTION('ref_axis',(1.77635683940025E-15,0.,-1.));
#813=DIRECTION('center_axis',(0.,1.,0.));
#814=DIRECTION('ref_axis',(1.77635683940025E-15,0.,-1.));
#815=DIRECTION('center_axis',(0.,1.,0.));
#816=DIRECTION('ref_axis',(1.77635683940025E-15,0.,-1.));
#817=DIRECTION('',(0.,1.,0.));
#818=DIRECTION('center_axis',(0.,0.,-1.));
#819=DIRECTION('ref_axis',(-1.,0.,0.));
#820=DIRECTION('',(1.,0.,0.));
#821=DIRECTION('',(-1.,0.,0.));
#822=DIRECTION('',(0.,1.,0.));
#823=DIRECTION('center_axis',(0.,1.,0.));
#824=DIRECTION('ref_axis',(1.,0.,4.44089209850063E-16));
#825=DIRECTION('center_axis',(0.,1.,0.));
#826=DIRECTION('ref_axis',(1.,0.,4.44089209850063E-16));
#827=DIRECTION('center_axis',(0.,1.,0.));
#828=DIRECTION('ref_axis',(1.,0.,4.44089209850063E-16));
#829=DIRECTION('center_axis',(0.,1.,0.));
#830=DIRECTION('ref_axis',(1.,0.,0.));
#831=DIRECTION('center_axis',(0.,1.,0.));
#832=DIRECTION('ref_axis',(1.,0.,0.));
#833=CARTESIAN_POINT('',(0.,0.,0.));
#834=CARTESIAN_POINT('Origin',(20.,0.1,8.));
#835=CARTESIAN_POINT('',(18.575,-2.4,8.));
#836=CARTESIAN_POINT('Origin',(20.,-2.4,8.));
#837=CARTESIAN_POINT('',(18.575,0.,8.));
#838=CARTESIAN_POINT('',(18.575,0.1,8.));
#839=CARTESIAN_POINT('Origin',(20.,0.,8.));
#840=CARTESIAN_POINT('Origin',(20.,-2.4,8.));
#841=CARTESIAN_POINT('Origin',(20.,0.1,61.7));
#842=CARTESIAN_POINT('',(18.575,-2.4,61.7));
#843=CARTESIAN_POINT('Origin',(20.,-2.4,61.7));
#844=CARTESIAN_POINT('',(18.575,0.,61.7));
#845=CARTESIAN_POINT('',(18.575,0.1,61.7));
#846=CARTESIAN_POINT('Origin',(20.,0.,61.7));
#847=CARTESIAN_POINT('Origin',(20.,-2.4,61.7));
#848=CARTESIAN_POINT('Origin',(-20.,0.1,61.7));
#849=CARTESIAN_POINT('',(-21.425,-2.4,61.7));
#850=CARTESIAN_POINT('Origin',(-20.,-2.4,61.7));
#851=CARTESIAN_POINT('',(-21.425,0.,61.7));
#852=CARTESIAN_POINT('',(-21.425,0.1,61.7));
#853=CARTESIAN_POINT('Origin',(-20.,0.,61.7));
#854=CARTESIAN_POINT('Origin',(-20.,-2.4,61.7));
#855=CARTESIAN_POINT('Origin',(24.5,0.1,40.));
#856=CARTESIAN_POINT('',(23.075,-2.4,40.));
#857=CARTESIAN_POINT('Origin',(24.5,-2.4,40.));
#858=CARTESIAN_POINT('',(23.075,0.,40.));
#859=CARTESIAN_POINT('',(23.075,0.1,40.));
#860=CARTESIAN_POINT('Origin',(24.5,0.,40.));
#861=CARTESIAN_POINT('Origin',(24.5,-2.4,40.));
#862=CARTESIAN_POINT('Origin',(-25.5,0.1,40.));
#863=CARTESIAN_POINT('',(-26.925,-2.4,40.));
#864=CARTESIAN_POINT('Origin',(-25.5,-2.4,40.));
#865=CARTESIAN_POINT('',(-26.925,0.,40.));
#866=CARTESIAN_POINT('',(-26.925,0.1,40.));
#867=CARTESIAN_POINT('Origin',(-25.5,0.,40.));
#868=CARTESIAN_POINT('Origin',(-25.5,-2.4,40.));
#869=CARTESIAN_POINT('Origin',(-20.,0.1,8.));
#870=CARTESIAN_POINT('',(-21.425,-2.4,8.));
#871=CARTESIAN_POINT('Origin',(-20.,-2.4,8.));
#872=CARTESIAN_POINT('',(-21.425,0.,8.));
#873=CARTESIAN_POINT('',(-21.425,0.1,8.));
#874=CARTESIAN_POINT('Origin',(-20.,0.,8.));
#875=CARTESIAN_POINT('Origin',(-20.,-2.4,8.));
#876=CARTESIAN_POINT('Origin',(15.7,-1.,21.15));
#877=CARTESIAN_POINT('',(14.,6.,21.15));
#878=CARTESIAN_POINT('',(15.7,6.,21.15));
#879=CARTESIAN_POINT('',(7.85,6.,21.15));
#880=CARTESIAN_POINT('',(14.,0.,21.15));
#881=CARTESIAN_POINT('',(14.,-1.,21.15));
#882=CARTESIAN_POINT('',(15.7,0.,21.15));
#883=CARTESIAN_POINT('',(7.85,0.,21.15));
#884=CARTESIAN_POINT('',(15.7,-1.,21.15));
#885=CARTESIAN_POINT('Origin',(15.7,-1.,27.65));
#886=CARTESIAN_POINT('',(22.2,6.,27.65));
#887=CARTESIAN_POINT('Origin',(15.7,6.,27.65));
#888=CARTESIAN_POINT('',(22.2,0.,27.65));
#889=CARTESIAN_POINT('Origin',(15.7,0.,27.65));
#890=CARTESIAN_POINT('',(22.2,-1.,27.65));
#891=CARTESIAN_POINT('Origin',(22.2,-1.,52.35));
#892=CARTESIAN_POINT('',(22.2,6.,52.35));
#893=CARTESIAN_POINT('',(22.2,6.,42.175));
#894=CARTESIAN_POINT('',(22.2,0.,52.35));
#895=CARTESIAN_POINT('',(22.2,0.,42.175));
#896=CARTESIAN_POINT('',(22.2,-1.,52.35));
#897=CARTESIAN_POINT('Origin',(15.7,-1.,52.35));
#898=CARTESIAN_POINT('',(15.7,6.,58.85));
#899=CARTESIAN_POINT('Origin',(15.7,6.,52.35));
#900=CARTESIAN_POINT('',(15.7,0.,58.85));
#901=CARTESIAN_POINT('Origin',(15.7,0.,52.35));
#902=CARTESIAN_POINT('',(15.7,-1.,58.85));
#903=CARTESIAN_POINT('Origin',(-16.7,-1.,58.85));
#904=CARTESIAN_POINT('',(-16.7,6.,58.85));
#905=CARTESIAN_POINT('',(-8.35,6.,58.85));
#906=CARTESIAN_POINT('',(-16.7,0.,58.85));
#907=CARTESIAN_POINT('',(-8.35,0.,58.85));
#908=CARTESIAN_POINT('',(-16.7,-1.,58.85));
#909=CARTESIAN_POINT('Origin',(-16.7,-1.,52.35));
#910=CARTESIAN_POINT('',(-23.2,6.,52.35));
#911=CARTESIAN_POINT('Origin',(-16.7,6.,52.35));
#912=CARTESIAN_POINT('',(-23.2,0.,52.35));
#913=CARTESIAN_POINT('Origin',(-16.7,0.,52.35));
#914=CARTESIAN_POINT('',(-23.2,-1.,52.35));
#915=CARTESIAN_POINT('Origin',(-23.2,-1.,27.65));
#916=CARTESIAN_POINT('',(-23.2,6.,27.65));
#917=CARTESIAN_POINT('',(-23.2,6.,29.825));
#918=CARTESIAN_POINT('',(-23.2,0.,27.65));
#919=CARTESIAN_POINT('',(-23.2,0.,29.825));
#920=CARTESIAN_POINT('',(-23.2,-1.,27.65));
#921=CARTESIAN_POINT('Origin',(-16.7,-1.,27.65));
#922=CARTESIAN_POINT('',(-16.7,6.,21.15));
#923=CARTESIAN_POINT('Origin',(-16.7,6.,27.65));
#924=CARTESIAN_POINT('',(-16.7,0.,21.15));
#925=CARTESIAN_POINT('Origin',(-16.7,0.,27.65));
#926=CARTESIAN_POINT('',(-16.7,-1.,21.15));
#927=CARTESIAN_POINT('Origin',(-14.,-1.,21.15));
#928=CARTESIAN_POINT('',(-14.,6.,21.15));
#929=CARTESIAN_POINT('',(-7.,6.,21.15));
#930=CARTESIAN_POINT('',(-14.,0.,21.15));
#931=CARTESIAN_POINT('',(-7.,0.,21.15));
#932=CARTESIAN_POINT('',(-14.,-1.,21.15));
#933=CARTESIAN_POINT('Origin',(-14.,-1.,5.));
#934=CARTESIAN_POINT('',(-14.,6.,5.));
#935=CARTESIAN_POINT('',(-14.,6.,18.5));
#936=CARTESIAN_POINT('',(-14.,0.,5.));
#937=CARTESIAN_POINT('',(-14.,0.,18.5));
#938=CARTESIAN_POINT('',(-14.,-1.,5.));
#939=CARTESIAN_POINT('Origin',(14.,-1.,5.));
#940=CARTESIAN_POINT('',(14.,6.,5.));
#941=CARTESIAN_POINT('',(7.,6.,5.));
#942=CARTESIAN_POINT('',(14.,0.,5.));
#943=CARTESIAN_POINT('',(7.,0.,5.));
#944=CARTESIAN_POINT('',(14.,-1.,5.));
#945=CARTESIAN_POINT('Origin',(14.,-1.,21.15));
#946=CARTESIAN_POINT('',(14.,6.,26.575));
#947=CARTESIAN_POINT('',(14.,0.,26.575));
#948=CARTESIAN_POINT('Origin',(28.,0.,61.5));
#949=CARTESIAN_POINT('',(28.,0.,2.5));
#950=CARTESIAN_POINT('',(28.,0.,61.5));
#951=CARTESIAN_POINT('',(28.,0.,2.5));
#952=CARTESIAN_POINT('',(28.,6.,2.5));
#953=CARTESIAN_POINT('',(28.,0.,2.5));
#954=CARTESIAN_POINT('',(28.,6.,61.5));
#955=CARTESIAN_POINT('',(28.,6.,2.5));
#956=CARTESIAN_POINT('',(28.,0.,61.5));
#957=CARTESIAN_POINT('Origin',(25.5,0.,61.5));
#958=CARTESIAN_POINT('',(25.5,0.,64.));
#959=CARTESIAN_POINT('Origin',(25.5,0.,61.5));
#960=CARTESIAN_POINT('',(25.5,6.,64.));
#961=CARTESIAN_POINT('Origin',(25.5,6.,61.5));
#962=CARTESIAN_POINT('',(25.5,0.,64.));
#963=CARTESIAN_POINT('Origin',(-25.5,0.,64.));
#964=CARTESIAN_POINT('',(-25.5,0.,64.));
#965=CARTESIAN_POINT('',(25.5,0.,64.));
#966=CARTESIAN_POINT('',(-25.5,6.,64.));
#967=CARTESIAN_POINT('',(25.5,6.,64.));
#968=CARTESIAN_POINT('',(-25.5,0.,64.));
#969=CARTESIAN_POINT('Origin',(-25.5,0.,61.5));
#970=CARTESIAN_POINT('',(-28.,0.,61.5));
#971=CARTESIAN_POINT('Origin',(-25.5,0.,61.5));
#972=CARTESIAN_POINT('',(-28.,6.,61.5));
#973=CARTESIAN_POINT('Origin',(-25.5,6.,61.5));
#974=CARTESIAN_POINT('',(-28.,0.,61.5));
#975=CARTESIAN_POINT('Origin',(-28.,0.,2.5));
#976=CARTESIAN_POINT('',(-28.,0.,2.5));
#977=CARTESIAN_POINT('',(-28.,0.,61.5));
#978=CARTESIAN_POINT('',(-28.,6.,2.5));
#979=CARTESIAN_POINT('',(-28.,6.,61.5));
#980=CARTESIAN_POINT('',(-28.,0.,2.5));
#981=CARTESIAN_POINT('Origin',(-25.5,0.,2.5));
#982=CARTESIAN_POINT('',(-25.5,0.,0.));
#983=CARTESIAN_POINT('Origin',(-25.5,0.,2.5));
#984=CARTESIAN_POINT('',(-25.5,6.,0.));
#985=CARTESIAN_POINT('Origin',(-25.5,6.,2.5));
#986=CARTESIAN_POINT('',(-25.5,0.,0.));
#987=CARTESIAN_POINT('Origin',(25.5,0.,0.));
#988=CARTESIAN_POINT('',(25.5,0.,3.33066907387547E-15));
#989=CARTESIAN_POINT('',(-25.5,0.,0.));
#990=CARTESIAN_POINT('',(25.5,6.,3.33066907387547E-15));
#991=CARTESIAN_POINT('',(-25.5,6.,0.));
#992=CARTESIAN_POINT('',(25.5,0.,3.33066907387547E-15));
#993=CARTESIAN_POINT('Origin',(25.5,0.,2.5));
#994=CARTESIAN_POINT('Origin',(25.5,0.,2.5));
#995=CARTESIAN_POINT('Origin',(25.5,6.,2.5));
#996=CARTESIAN_POINT('Origin',(0.,6.,32.));
#997=CARTESIAN_POINT('Origin',(0.,0.,32.));
#998=UNCERTAINTY_MEASURE_WITH_UNIT(LENGTH_MEASURE(0.01),#1002,
'DISTANCE_ACCURACY_VALUE',
'Maximum model space distance between geometric entities at asserted c
onnectivities');
#999=UNCERTAINTY_MEASURE_WITH_UNIT(LENGTH_MEASURE(0.01),#1002,
'DISTANCE_ACCURACY_VALUE',
'Maximum model space distance between geometric entities at asserted c
onnectivities');
#1000=(
GEOMETRIC_REPRESENTATION_CONTEXT(3)
GLOBAL_UNCERTAINTY_ASSIGNED_CONTEXT((#998))
GLOBAL_UNIT_ASSIGNED_CONTEXT((#1002,#1004,#1005))
REPRESENTATION_CONTEXT('','3D')
);
#1001=(
GEOMETRIC_REPRESENTATION_CONTEXT(3)
GLOBAL_UNCERTAINTY_ASSIGNED_CONTEXT((#999))
GLOBAL_UNIT_ASSIGNED_CONTEXT((#1002,#1004,#1005))
REPRESENTATION_CONTEXT('','3D')
);
#1002=(
LENGTH_UNIT()
NAMED_UNIT(*)
SI_UNIT(.MILLI.,.METRE.)
);
#1003=(
LENGTH_UNIT()
NAMED_UNIT(*)
SI_UNIT($,.METRE.)
);
#1004=(
NAMED_UNIT(*)
PLANE_ANGLE_UNIT()
SI_UNIT($,.RADIAN.)
);
#1005=(
NAMED_UNIT(*)
SI_UNIT($,.STERADIAN.)
SOLID_ANGLE_UNIT()
);
#1006=SHAPE_DEFINITION_REPRESENTATION(#1007,#1008);
#1007=PRODUCT_DEFINITION_SHAPE('',$,#1010);
#1008=SHAPE_REPRESENTATION('',(#594),#1000);
#1009=PRODUCT_DEFINITION_CONTEXT('part definition',#1014,'design');
#1010=PRODUCT_DEFINITION('2026-09-07-14-26-16-484','FitGauge',#1011,#1009);
#1011=PRODUCT_DEFINITION_FORMATION('',$,#1016);
#1012=PRODUCT_RELATED_PRODUCT_CATEGORY('FitGauge','FitGauge',(#1016));
#1013=APPLICATION_PROTOCOL_DEFINITION('international standard',
'automotive_design',2009,#1014);
#1014=APPLICATION_CONTEXT(
'Core Data for Automotive Mechanical Design Process');
#1015=PRODUCT_CONTEXT('part definition',#1014,'mechanical');
#1016=PRODUCT('2026-09-07-14-26-16-484','FitGauge',$,(#1015));
#1017=PRESENTATION_STYLE_ASSIGNMENT((#1019));
#1018=PRESENTATION_STYLE_ASSIGNMENT((#1020));
#1019=SURFACE_STYLE_USAGE(.BOTH.,#1021);
#1020=SURFACE_STYLE_USAGE(.BOTH.,#1022);
#1021=SURFACE_SIDE_STYLE('',(#1023));
#1022=SURFACE_SIDE_STYLE('',(#1024));
#1023=SURFACE_STYLE_FILL_AREA(#1025);
#1024=SURFACE_STYLE_FILL_AREA(#1026);
#1025=FILL_AREA_STYLE('Steel - Satin',(#1027));
#1026=FILL_AREA_STYLE('MiniMac Platinum',(#1028));
#1027=FILL_AREA_STYLE_COLOUR('Steel - Satin',#1029);
#1028=FILL_AREA_STYLE_COLOUR('MiniMac Platinum',#1030);
#1029=COLOUR_RGB('Steel - Satin',0.627450980392157,0.627450980392157,0.627450980392157);
#1030=COLOUR_RGB('MiniMac Platinum',0.870588235294118,0.847058823529412,
0.784313725490196);
ENDSEC;
END-ISO-10303-21;
